<svg width="250" height="60" viewBox="0 0 250 60" xmlns="http://www.w3.org/2000/svg">
  <!-- Background circle for baseball -->
  <circle cx="30" cy="30" r="25" fill="#dc2626" stroke="#1e40af" stroke-width="2"/>
  
  <!-- Baseball stitching -->
  <path d="M15 30 Q30 15 45 30 Q30 45 15 30" fill="none" stroke="#ffffff" stroke-width="2" stroke-linecap="round"/>
  <path d="M30 15 Q45 30 30 45 Q15 30 30 15" fill="none" stroke="#ffffff" stroke-width="2" stroke-linecap="round"/>
  
  <!-- Star in the center -->
  <polygon points="30,18 32,26 40,26 34,31 36,39 30,34 24,39 26,31 20,26 28,26" fill="#fbbf24"/>
  
  <!-- Text: Future Stars -->
  <text x="70" y="28" font-family="Inter, sans-serif" font-size="18" font-weight="800" fill="#1e40af">FUTURE STARS</text>
  
  <!-- Text: Academy -->
  <text x="70" y="45" font-family="Inter, sans-serif" font-size="14" font-weight="600" fill="#dc2626">ACADEMY</text>
  
  <!-- Baseball bat icon -->
  <rect x="200" y="15" width="5" height="25" fill="#8B4513" rx="2.5"/>
  <rect x="198" y="13" width="9" height="5" fill="#8B4513" rx="2.5"/>
  
  <!-- Baseball icon -->
  <circle cx="225" cy="30" r="10" fill="#ffffff" stroke="#dc2626" stroke-width="1.5"/>
  <path d="M215 30 Q225 20 235 30 Q225 40 215 30" fill="none" stroke="#dc2626" stroke-width="1"/>
  <path d="M225 20 Q235 30 225 40 Q215 30 225 20" fill="none" stroke="#dc2626" stroke-width="1"/>
  
  <!-- Decorative elements -->
  <circle cx="240" cy="15" r="3" fill="#fbbf24" opacity="0.6"/>
  <circle cx="245" cy="45" r="2" fill="#dc2626" opacity="0.4"/>
</svg> 